<svg xmlns="http://www.w3.org/2000/svg" width="27" height="67" viewBox="0 0 27 67">
  <defs>
    <style>
      .cls-1 {
        fill: #eaff00;
      }

      .cls-2 {
        fill: #242d52;
      }
    </style>
  </defs>
  <rect id="Rectangle_692_copy" data-name="Rectangle 692 copy" class="cls-1" x="6" y="33" width="3" height="3"/>
  <rect id="Rectangle_692_copy_2" data-name="Rectangle 692 copy 2" class="cls-1" x="12" y="33" width="3" height="3"/>
  <rect id="Rectangle_692_copy_3" data-name="Rectangle 692 copy 3" class="cls-1" x="15" y="33" width="3" height="3"/>
  <rect id="Rectangle_692_copy_4" data-name="Rectangle 692 copy 4" class="cls-1" x="18" y="33" width="3" height="3"/>
  <rect id="Rectangle_692_copy_5" data-name="Rectangle 692 copy 5" class="cls-1" x="21" y="30" width="3" height="3"/>
  <rect id="Rectangle_692_copy_6" data-name="Rectangle 692 copy 6" class="cls-1" x="24" y="27" width="3" height="3"/>
  <rect id="Rectangle_692_copy_7" data-name="Rectangle 692 copy 7" class="cls-1" x="24" y="24" width="3" height="3"/>
  <rect id="Rectangle_692_copy_8" data-name="Rectangle 692 copy 8" class="cls-1" x="24" y="21" width="3" height="3"/>
  <rect id="Rectangle_692_copy_9" data-name="Rectangle 692 copy 9" class="cls-1" x="24" y="18" width="3" height="3"/>
  <rect id="Rectangle_692_copy_10" data-name="Rectangle 692 copy 10" class="cls-1" x="24" y="12" width="3" height="3"/>
  <rect id="Rectangle_692_copy_11" data-name="Rectangle 692 copy 11" class="cls-1" x="24" y="9" width="3" height="3"/>
  <rect id="Rectangle_692_copy_12" data-name="Rectangle 692 copy 12" class="cls-1" x="24" y="6" width="3" height="3"/>
  <rect id="Rectangle_692_copy_13" data-name="Rectangle 692 copy 13" class="cls-1" x="24" y="3" width="3" height="3"/>
  <rect id="Rectangle_692_copy_14" data-name="Rectangle 692 copy 14" class="cls-1" x="21" width="3" height="3"/>
  <rect id="Rectangle_692_copy_15" data-name="Rectangle 692 copy 15" class="cls-1" x="18" width="3" height="3"/>
  <rect id="Rectangle_692_copy_16" data-name="Rectangle 692 copy 16" class="cls-1" x="15" width="3" height="3"/>
  <rect id="Rectangle_692_copy_17" data-name="Rectangle 692 copy 17" class="cls-1" x="12" width="3" height="3"/>
  <rect id="Rectangle_692_copy_29" data-name="Rectangle 692 copy 29" class="cls-1" x="12" y="9" width="3" height="3"/>
  <rect id="Rectangle_692_copy_30" data-name="Rectangle 692 copy 30" class="cls-1" x="12" y="12" width="3" height="3"/>
  <rect id="Rectangle_692_copy_18" data-name="Rectangle 692 copy 18" class="cls-1" x="6" width="3" height="3"/>
  <rect id="Rectangle_692_copy_31" data-name="Rectangle 692 copy 31" class="cls-1" x="9" y="33" width="3" height="3"/>
  <rect id="Rectangle_692_copy_33" data-name="Rectangle 692 copy 33" class="cls-2" x="6" y="45" width="3" height="3"/>
  <rect id="Rectangle_692_copy_33-2" data-name="Rectangle 692 copy 33" class="cls-2" x="12" y="51" width="3" height="3"/>
  <rect id="Rectangle_692_copy_33-3" data-name="Rectangle 692 copy 33" class="cls-2" x="15" y="48" width="3" height="3"/>
  <rect id="Rectangle_692_copy_33-4" data-name="Rectangle 692 copy 33" class="cls-2" x="18" y="45" width="3" height="3"/>
  <rect id="Rectangle_692_copy_33-5" data-name="Rectangle 692 copy 33" class="cls-2" x="9" y="48" width="3" height="3"/>
  <rect id="Rectangle_692_copy_34" data-name="Rectangle 692 copy 34" class="cls-1" x="6" y="58" width="3" height="3"/>
  <rect id="Rectangle_692_copy_34-2" data-name="Rectangle 692 copy 34" class="cls-1" x="12" y="64" width="3" height="3"/>
  <rect id="Rectangle_692_copy_34-3" data-name="Rectangle 692 copy 34" class="cls-1" x="15" y="61" width="3" height="3"/>
  <rect id="Rectangle_692_copy_34-4" data-name="Rectangle 692 copy 34" class="cls-1" x="18" y="58" width="3" height="3"/>
  <rect id="Rectangle_692_copy_34-5" data-name="Rectangle 692 copy 34" class="cls-1" x="9" y="61" width="3" height="3"/>
  <rect id="Rectangle_692_copy_31-2" data-name="Rectangle 692 copy 31" class="cls-1" x="9" width="3" height="3"/>
  <rect id="Rectangle_692_copy_19" data-name="Rectangle 692 copy 19" class="cls-1" x="3" width="3" height="3"/>
  <rect id="Rectangle_692_copy_20" data-name="Rectangle 692 copy 20" class="cls-1" y="3" width="3" height="3"/>
  <rect id="Rectangle_692_copy_21" data-name="Rectangle 692 copy 21" class="cls-1" y="6" width="3" height="3"/>
  <rect id="Rectangle_692_copy_22" data-name="Rectangle 692 copy 22" class="cls-1" y="9" width="3" height="3"/>
  <rect id="Rectangle_692_copy_23" data-name="Rectangle 692 copy 23" class="cls-1" y="12" width="3" height="3"/>
  <rect id="Rectangle_692_copy_32" data-name="Rectangle 692 copy 32" class="cls-1" x="24" y="15" width="3" height="3"/>
  <rect id="Rectangle_692_copy_32-2" data-name="Rectangle 692 copy 32" class="cls-1" y="15" width="3" height="3"/>
  <rect id="Rectangle_692_copy_24" data-name="Rectangle 692 copy 24" class="cls-1" y="18" width="3" height="3"/>
  <rect id="Rectangle_692_copy_25" data-name="Rectangle 692 copy 25" class="cls-1" y="21" width="3" height="3"/>
  <rect id="Rectangle_692_copy_26" data-name="Rectangle 692 copy 26" class="cls-1" y="24" width="3" height="3"/>
  <rect id="Rectangle_692_copy_27" data-name="Rectangle 692 copy 27" class="cls-1" y="27" width="3" height="3"/>
  <rect id="Rectangle_692_copy_28" data-name="Rectangle 692 copy 28" class="cls-1" x="3" y="30" width="3" height="3"/>
</svg>
