<svg xmlns="http://www.w3.org/2000/svg" width="1093" height="328" viewBox="0 0 1093 328">
  <metadata><?xpacket begin="﻿" id="W5M0MpCehiHzreSzNTczkc9d"?>
<x:xmpmeta xmlns:x="adobe:ns:meta/" x:xmptk="Adobe XMP Core 5.6-c142 79.160924, 2017/07/13-01:06:39        ">
   <rdf:RDF xmlns:rdf="http://www.w3.org/1999/02/22-rdf-syntax-ns#">
      <rdf:Description rdf:about=""/>
   </rdf:RDF>
</x:xmpmeta>
                                                                                                    
                                                                                                    
                                                                                                    
                                                                                                    
                                                                                                    
                                                                                                    
                                                                                                    
                                                                                                    
                                                                                                    
                                                                                                    
                                                                                                    
                                                                                                    
                                                                                                    
                                                                                                    
                                                                                                    
                                                                                                    
                                                                                                    
                                                                                                    
                                                                                                    
                                                                                                    
                           
<?xpacket end="w"?></metadata>
<defs>
    <style>
      .cls-1, .cls-2, .cls-3 {
        fill: none;
        stroke-width: 1px;
        fill-rule: evenodd;
      }

      .cls-1 {
        stroke: #00aeff;
      }

      .cls-2 {
        stroke: #f91253;
      }

      .cls-3 {
        stroke: #fff;
      }
    </style>
  </defs>
  <path id="Shape_1_copy_13" data-name="Shape 1 copy 13" class="cls-1" d="M42.837,29.6Q51.6,45.406,50.344,49.26q8.845,20.892,1.975,74.035l-1.575,21.754-1.157-.012q-2.129,23.448-6.64,49.764l1.444,0.015q55.093-71.311,66.485-81.365l0.391-1.2,1.445,0.014-0.784,2.411,1.444,0.014,0.393-1.208-0.66-2.424q14.661-13.882,33.576-35.478A59.2,59.2,0,0,1,148.9,65.195a1.354,1.354,0,0,0,1.466-.952l-1.154-.01a1.589,1.589,0,0,1-1.757.95l0.706-2.169A1.7,1.7,0,0,1,150,61.82l-3.167-11.641,0.315-.964q2.019,0.019,6.667-3.565l6.422,14.09-0.314.966,1.443,0.011q10.565-14.649,22.09-21.559l-0.393,1.207q-3.911,3.106-15.893,19.44-2.316-.021-5.479,7.931,15.639-9.768,30.145-28.5l2.6,0.024-1.859,2.159-0.393,1.205q6.791-5.74,8.529-5.722l-0.394,1.2q-4.878,6.973-6.319,6.955a5.694,5.694,0,0,1,.346,3.388q-7.953,8.4-28.089,35.533l-0.393,1.207,1.155,0.01L198,49.7l1.444,0.013-0.707,2.169L165.21,90.749q2.889,0.029-1.564,51.988-2.347,15.219-1.924,18.363l-1.444-.014q-2.929,34.807-7.4,48.552l2.889,0.027A903.653,903.653,0,0,1,220.017,130.7l0.393-1.207,1.444,0.014-0.707,2.17,1.444,0.015,0.315-.964-0.659-2.427,67.44-70.954,2.916-.939-0.315.964L267.841,86.165Q255.22,99.1,254.6,101.034l-0.315.966,1.445,0.013q1.728-5.3,29.854-28.5,14.925-15.58,15.4-17.028l2.6,0.024-1.866,2.162-0.392,1.205q6.793-5.743,8.529-5.725l-0.393,1.208q-4.792,6.723-6.24,6.712a6.835,6.835,0,0,1,.266,3.63L261.84,117.069l1.444,0.012L307.215,66.7l1.445,0.013-0.784,2.415q-34.969,38.85-46.108,56.158,3.177,0.029,11.1-12.713l1.444,0.015-0.393,1.2A921.038,921.038,0,0,0,220.3,197.46q-7.922,7.425-39.887,50.413l-31.081,36.712q-10.682,7.882-13.857,7.85l-0.39,1.207-0.837,7a10.607,10.607,0,0,0-2.935,4.57l-1.157-.011,1.887-5.788L130.6,299.4l-0.707,2.171-1.444-.014q-8.093-.078-5.5-8.036a32.063,32.063,0,0,0-7.5-11.683q0.7-2.169-.45-2.181l1.938-2.4q0.942-2.893-2.074-23-6.707-8.771,1.283-71.586l0.833-7,1.444,0.015q-0.977-1.461,1.145-7.972l-1.442-.012q-9.231,15.875-65.374,85.967-16.553,19.677-26.133,21.52l-1.445-.011L24.4,277.589,23.565,284.6a10.612,10.612,0,0,0-2.935,4.568l-1.445-.014,1.885-5.785-1.444-.013-0.707,2.17-1.445-.014q-8.091-.076-5.5-8.035-1.743-8-5-10.451c0.224-3.056-.147-4.594-1.108-4.6l1.941-2.4,1.1-3.377-2.991,1.18q1.41-4.341-5.9-37.063,3.383-44.234,6-61.141l1.444,0.013a5.627,5.627,0,0,1-.349-3.386,83.414,83.414,0,0,0,3.425-14.965q4.746-10.113,5.527-12.525,1.022-3.132,6.038-26.549,4.042,0.036-1.219,16.2l1.445,0.012L23.108,116a77.97,77.97,0,0,1,2.638-12.551l3.722-6.98,4.294-34.548,0.393-1.205L35.6,60.729l-1.516,8.21,1.445,0.013,1.179-3.615q-0.671-10.405.431-13.785l0.393-1.2,2.151-2.156-1.444-.013a1.588,1.588,0,0,1-1.761.952l0.707-2.174a1.7,1.7,0,0,1,1.838-1.19L35.856,34.125l0.314-.967Q38.192,33.181,42.837,29.6ZM18.87,290.116l2.89,0.026-0.415,4.835-2.914.938c0.209-.638-0.17-0.967-1.13-0.978l2.231-2.4Zm110.976,16.051,2.6,0.024-0.128,4.84-3.2.937c0.21-.64-0.073-0.969-0.842-0.975l1.943-2.4ZM337.05-.012L338.5,0l-2.877,7.953,1.444,0.014q1.537-3.85,6.166-3.811-1.338,4.1,1.846,4.129L346.518,8.3l-0.583-2.665a4.1,4.1,0,0,1,4.252-2.379l2.418,1.475,1.152-2.649L355.2,2.1q3.864,4.149,8.121,4.428l-1.155,2.65-5.8-1.748-6.279-.3-0.47,1.446a57.175,57.175,0,0,1,12.163,1.81l-1.155,2.65-7.249-1.762-3.179-.03a8.263,8.263,0,0,1,.111,4.112l12.634,0.362-0.582-2.664a18.676,18.676,0,0,1,5.3-1.161l0.393-1.2-3.1-.273,0.862-2.65q24.707-2.907,26.732-2.889,18.88,4.294,38.31,38.1,8.421,20.4,1.437,39.2l-2.881,7.954L430,92.789l-1.654-.258,0.5,2.907-2.015,5.3q-13.671,36.641-80.865,67.683,6.5,16.5,19.088,85.564,0.783,0.248,3.106,8.255l-2.308,2.635L367.3,264.9a1.926,1.926,0,0,1,2.128-1.191l-0.47,1.445-2.52,2.4,21.213,37.209-1.155,2.651q-0.865-.007-16.15-20.714l-0.393,1.205a153.072,153.072,0,0,0,14.529,24.81l-0.362,5.56a87.113,87.113,0,0,1-10.646-10.021L373,309.7q2.014,0.019,5.311,6.823l-0.472,1.446q-6.1-1.744-23.4-22.477l-0.683,1.2q2.315,0.021,5.527,7.067l-1.655-.255-2.708-1.48-0.471,1.448q2.307,0.021,14.126,18.032l-0.473,1.45q-1.655-.258-7.36-5.877l-0.761,1.443q2.31,0.024,5.6,6.826L364.428,328q-11.264-17.034-46.517-50.271-17.421-30.153-18.037-84.348l0.393-1.2-1.444-.012q-12.645,33.5-45.888,83.975l-1.445-.014a8.256,8.256,0,0,0-.113-4.109l-7.426,2.346q0.232-6.045-3.579-6.806l-1.153,2.647q-3.183-.029-1.161-5.33l-1.369-.253-7.9,3.793-1.732-.018q1.146-2.646-1.945-2.92l0.862-2.653,2.7,1.478q5.771-32.839,23.783-81.045Q318.5,40.931,324.263,25.023l6.913-18.561Q334.353,6.492,337.05-.012ZM353.322,32.8l-0.471,1.448q-5.38,31.639-11.974,49.23L320.142,139.15q29.167-5.043,48.114-22.277,13.14-13.664,14.162-16.8l1.734,0.016-0.471,1.447q-1.155,2.651-9.729,12.968l3.1,0.273q8.026-8.634,9.048-11.766L384.653,103l2.6-2.637,2.877-7.953q8.928-23.863-8.875-44.833Q367.534,36.323,353.322,32.8ZM364.8,122.161q-18.27,13.375-44.073,19.654l-0.472,1.446,3.176,0.033,12.838-4.714c-0.26.8,0.089,1.207,1.053,1.217l1.154-2.649,1.365,0.257-0.865,2.65,1.445,0.012q8.293,0.325,11-3.521l-0.5-2.907q12.257-7.38,15.329-11.465Zm2.051-87.3-0.393,1.2a47.008,47.008,0,0,1,19.63,11.8l1.448,0.015L386.447,42.3a1.69,1.69,0,0,0,2.127-1.19q-3.471-2.689-10.034-3l-0.394,1.205q-6.464-4.168-9.563-4.443Zm22.528,17.146-0.394,1.2,4.655,4.4,0.469-1.446Zm161.311,5.65,16.467,0.157,11.694,3.254a2.19,2.19,0,0,1,2.284-1.671q-0.707,2.171,33.945,14.111l0.712,3.15-3.754-.034-6.2-3.2-0.472,1.447q14.633,9.333,18.975,9.373l-1-3.155,2.021,0.019q22.431,9.409,29.027,50.588l1.734,0.018-2.756,3.118,1.735,0.016a2.038,2.038,0,0,1-2.206,1.429q-3.863,23.43-2.909,25.853-21.808,43.824-47.493,62.2a181.5,181.5,0,0,1-50.76,26.847q-19.407,4.412-23.45,4.374l-1.735-.016,0.472-1.448,3.467,0.031,1.021-3.134a2.042,2.042,0,0,0-2.2,1.433q-1.735-.02-1.263-1.466a230.9,230.9,0,0,1-37.421,2.789l-3.756-.037q-24.242-1.192-54.595-17.454Q399,204,408.426,175.064l1.734,0.016-0.791-2.912,5.495-16.877,3.206,1.724,4-12.3L421,141.807q3.173,0.029,10.963-10.54l-1-3.154,1.493-4.584q6.6-20.255,77.122-57.073Q540.289,57.56,550.687,57.657ZM536.079,97.186l0.55-1.687q-55.317,18.583-61.989,39.076-5.719,6-7.453,5.978l0.471-1.446,2.679-2.879-1.735-.018q-4.854,6-7.451,5.977-4.158,18.1-2.913,25.854a15.2,15.2,0,0,0-3.695,6.01q1.058,9.21,4.238,9.233a2.039,2.039,0,0,1,2.2-1.428,8.187,8.187,0,0,0,.32,4.355,2.189,2.189,0,0,0-2.282,1.672c1.154,0.009,1.574.5,1.26,1.462l-3.464-.034q-0.473,1.45,9.256,10.734a2.039,2.039,0,0,0-2.205,1.431q3.308,0.519,2.446,3.167l-1.731-.015-7.284-6.12-1.733-.017-0.471,1.448,17.955,12.506,1.729,0.018,0.551-1.688q-7.223-.067-9.016-6.132l1.734,0.018q14.452,10.781,34.97,10.973l7.222,0.07q1.731,0.013,1.259,1.464l4.229-1.414,12.713,0.121-5.247,4.549,2.019,0.02a2.043,2.043,0,0,1,2.206-1.433l-0.472,1.449q29.619-5.526,43.08-14.829c-0.314.961,0.2,1.453,1.551,1.466q28.9-21.979,34.468-39.1l0.549-1.69-1.736-.018q-6.042,18.573-27.378,33.36l0.471-1.443q17.578-14.83,23.154-31.951l6.908-21.217,3.284,1.482q-6.081-30.292-17.323-36.69-8.442-6.123-23.7-10.87l0.468-1.447q28.6,0.273,42.747,36.934,4.554-13.985-19.289-30.664a110.7,110.7,0,0,0-20.233-10.834Q550.1,94.173,536.079,97.186Zm-41.588,10.245q-4.093,4.56-21.173,19.633l3.756,0.034q1.335-4.092,20.883-19.631Zm0.833,109.582-0.55,1.686,3,1.481,3.759,0.037L502,218.769A12.193,12.193,0,0,1,495.324,217.013Zm8.407,1.773-0.472,1.449,7.222,0.068,0.471-1.448Zm7.478-123.528q-1.024,3.134-6.51,3.079l-0.473,1.449,3.464,0.031q0.944-2.891,6.434-2.84l0.55-1.688ZM534,249.55l-0.941,2.894,1.733,0.017q2.6,0.025,6.98-4.531l-1.734-.018A19.749,19.749,0,0,1,534,249.55Zm43.489-49.9-0.472,1.448q-0.7,2.171-6.982,4.531l0.472-1.447C570.974,202.733,573.3,201.229,577.484,199.651Zm16.348-123.2L593.363,77.9q13,0.122,35.695,24.769l-0.473,1.449,2.022,0.02L631.629,101q-21.408-21.49-24-21.516l-0.473,1.448-11.3-4.463ZM607.3,158.818l-1.963,6.029,1.735,0.016,1.962-6.029ZM756.162,4.224q-1.255,3.855,1.514,14.044-1.181,3.615-2.649,26.821l-6.986,21.462q7.932,8.544,9.755,77.736-4.322,13.266-3.837,44.711l-1.255,3.86-1.734-.016,0.673-6.527L750.2,186.3l-0.469,1.45,1.864,22.754,1.445,0.013,0.393-1.208q0.629-1.927,3.5-15.2,3.141-9.642,11.134-25.291l-1.445-.014a14.108,14.108,0,0,0,2.7-3.846q1.412-4.338.675-6.523Q810.84,51.671,834.1,40.762q2.593-7.956,15.329-8.8L853.762,32c1.155,0.012,1.6.422,1.341,1.225q6.929-2.6,9.817-2.571,6.386,4.417,5.289,7.793a62.813,62.813,0,0,1-2.449,16.424Q856.183,85.96,855.086,89.338l-1.444-.011,0.661,2.426L853.438,94.4l-2.231,2.4,1.445,0.011-2.308,2.638-2.041,6.27q-0.63,1.934-13.147,30.592l-0.393,1.2a1.7,1.7,0,0,1-1.838,1.193,6.984,6.984,0,0,1,.189,3.873L790.3,222.482q-8.7,17.823-10.741,24.085l-1.734-.016,1.648-5.065q5.426-11.311,6.286-13.968l1.258-3.858-1.734-.018q-0.236.723-9.092,19.023l-1.648,5.065a1.916,1.916,0,0,1-2.127,1.188c-0.315.963,0.107,1.456,1.263,1.465l-4.639,8.9L760,287.017c-0.314.963,0.109,1.456,1.263,1.465q-1.809.225-5.817,12.522l-1.444-.013,21.907-67.276-1.444-.016q-9.146,23.625-12.6,34.229l-0.862,2.654-2.6,2.635,1.732,0.017-17.606,35.384q-3.185-.027.51-11.36l-1.444-.013-2.827,8.679-1.735-.015q2.436-7.473,12.937-58.412l-1.444-.015q-11.465,35.209-19.269,54.723l-1.445-.013a168.381,168.381,0,0,1,4.471-19.068l4.554-13.983,2.717-12.8,1.445,0.013-0.58-2.663,4.082-12.541,0.673-6.523-1.444-.013-0.862,2.65-1.734-.017q1.493-4.575-13.514-33.264l-0.39,1.206q6.51,21.83,5.728,24.241l-1.444-.015q1.758,4.373,1.056,6.541-3.607-3.174-13.973-46.091-7.24-10.705-7.338-34.415l-1.444-.014Q693.078,188.18,631.04,298.608l-1.256,3.858-2.888-.026q6.887-12.267,7.442-13.96l0.392-1.2-1.446-.014-0.783,2.41-2.888-.027q-2.975-2.444-5.279-2.466a1.846,1.846,0,0,1,1.913-1.437l3.5-15.2,3.3-10.128,0.31-6.287-3.281,1.179,0.392-1.205q3.3-10.129,9.432-43.207,19.47-59.8,60.036-114.081,5.888-15.42,9.646-15.387l-0.472,1.446-8.124,15.162-0.786,2.411,1.735,0.015q1.964-6.022,23.983-41.618a135.124,135.124,0,0,0,8.8-21.683l1.445,0.015L732.472,48.5l1.444,0.014q2.433-7.471,3.876-7.461l-0.579-2.664A1.7,1.7,0,0,1,739.05,37.2l0.2-5.078q4.425-9.147,6.947-11.547L747.5,6.8l2.785,1.234,1.444,0.014Q752.985,4.2,756.162,4.224ZM745.85,195.208l-0.393,1.208q3.065,18.17,1.5,22.994l3.178,0.029,0.394-1.207-3.233-23.007ZM839.833,162l-1.963,6.03,1.735,0.015,0.943-2.9q2.307,0.022,5.107,11.9l-0.551,1.69-1.731-.018q-3.759-.031-2.262-4.618l-1.735-.016-0.942,2.894c1.156,0.01,1.549.583,1.183,1.706l-1.734-.017q-2.314-.023-7.7-9.264,4.622,0.047,7.92-7.425Zm-2.894,19.567L840.7,181.6a8.291,8.291,0,0,0,.242,4.6l-1.734-.015q-3.761-.038-2.735-3.173Zm1.8,6.063q3.306,0.52,2.523,2.926l-0.472,1.449q-3.463-.035-2.523-2.927Zm5.9-7.443,1.733,0.017,0.06,6.049q-3.751-.037-2.266-4.618ZM978.231,62.7l19.936,0.191q42.755,0.406,67.643,35.233,8.805,16.54,6.85,22.56l-0.47,1.45-1.73-.018q1.965-6.028-18.16-27.025l0.55-1.683-4.01,1.652-2.02-.02q1.485-4.576-4.43-7.779l-0.55,1.687q1.455,0.013,12.58,16.566a2.047,2.047,0,0,0-2.21,1.432l1.74,0.016a2.035,2.035,0,0,1,2.2-1.431l1.98,4.616a2.048,2.048,0,0,1-2.21,1.431l4.09,15.036-3.47-.035q1.425-4.34-10.05-13.639,2.19,4.857,1.33,7.51l-8.55-7.579-0.47,1.447q2.61,0.024,6.52,7.558l-0.55,1.689-3.46-.034q1.17-3.613-4.72-7.785l-0.54,1.69,6.05,9.006-0.47,1.447-3.47-.036q1.965-6.02-3.53-6.079l-1.02,3.136c-1.92-.017-3.68-2.048-5.26-6.1l1.74,0.018,3.28,1.482,0.47-1.448-4.47-3.186-1.02,3.134-1.73-.017c1.31-4.016-1.03-6.054-6.99-6.11l0.47-1.449a2.032,2.032,0,0,0,2.2-1.432l-3.94,1.415-1.73-.014,2.75-3.122q-10.515-9.531-40.743-13.691L974.7,95.8q-1.734-.017-1.261-1.462l-4.228,1.41-10.69-.1-0.941,2.894,4.225-1.411,19.648,0.187q22.815,0.217,32.45,10.711l-1.74-.017q-16.455-9.1-38.4-9.315-5.491-.051-24.421,2.912l3.044-3.116-3.759-.037L948.15,99.9l0.713,3.152-7.222-.068,5.249-4.548q-58.92,15.4-70.853,52.054l-1.412,4.339q-11.936,36.657,33,58.852,4.617,0.043,20.355,3.339l-0.469,1.446-7.222-.069q-21.38-.2-41.887-19.992,1.8-5.544-9.107-16.533l1.508,6.06-3.468-.034q1.895,4.858,1.034,7.51l-6.994-6.114-1.734-.016q6.426,16.749,16.567,21.2l0.472-1.448q-1.731-.015-1.182-1.7a18.988,18.988,0,0,0,5.672-1.4q26.353,16.944,52.07,17.186,1.179-3.615,26.385-8.938a10.254,10.254,0,0,0,4.651,1.735q19.993-13.352,22.6-13.327l-0.944,2.894q1.442,0.012,14.618-11.956l-1.022,3.132q-1.811,5.555-15.558,14.851l3.468,0.032-4.959,4.549,1.732,0.015q24.508-14.762,28.439-26.818l-1.73-.017,2.75-3.118,0.47-1.446a76.913,76.913,0,0,0-14.915,1.308l-35.672-6.145-0.471,1.446-3-1.478-3.756-.036a2.042,2.042,0,0,0-2.206,1.428q-2.417-1.47-8.483-1.529l0.551-1.69,8.954,0.085,0.472-1.448-10.689-.1a63.774,63.774,0,0,0-23.161,4.375,12.172,12.172,0,0,0-5.016-1.5l0.55-1.689q26.826-4.1,33.768-4.032l0.551-1.69-7.222-.069-12.971,1.572,0.55-1.69q-13.266,1.57-13.732,3.015a12.619,12.619,0,0,0-6.466-1.513l0.55-1.688,2.675-2.878c-1.154-.01-1.574-0.5-1.262-1.461q4.62,0.045,30.322-10.353l3.465,0.03L948,155.535l-5.2-.05q-15.624,3.478-15.933,4.443l-3.288-1.483-1.734-.016-3.935,1.412,1.019-3.134L988.7,140.925q37.025-1.578,48.293-4.135,37.95,4.478,30.49,27.38,2.025,0.018-.88,8.94l-0.55,1.689q-4.695,2.859-27.64,29.729-54.825,49.064-91.5,48.716l-6.753-1.518q-3.468-.033-13.651,2.774-6.286-2.962-9.751-3l-0.468,1.449q-31.341-3.438-29.452-9.231l2.021,0.019,6.463,1.515,2.023,0.017,0.471-1.448q-5.491-.052-4-4.632l3.467,0.034,6.75,1.514,2.024,0.017,0.47-1.445-5.489-.052,0.473-1.446,2.751-3.117q-23.565-5.062-21.287-12.054l-3.94,1.414q-17.481-11.292-24.592-34.824-10.834-5.908-2.509-31.469,9.971-30.62,41.462-55.237l-1.734-.017q-24.279,16.7-31.877,31.14l-1.729-.018L859,130.738a14.544,14.544,0,0,1,3.225-4.567l0.7-7.49q5.966-18.324,58.911-42.977Q957.716,62.5,978.231,62.7ZM854.6,216.325q18.532,15.173,22,15.2l-0.471,1.448-5.489-.051q-17.06-13.463-16.507-15.155Zm5.8-67.674-4.4,13.5,1.734,0.017a15.208,15.208,0,0,1,3.7-6.009q-0.947-2.427.7-7.5Zm0.014,82.722,5.492,0.054q3.308,0.52,2.523,2.926l-0.473,1.449-3.463-.032Q861.9,235.743,860.423,231.373ZM877.61,123.417L865.519,138.3l1.734,0.018,12.09-14.882Zm-5.8,100.569L873.547,224q3.6,0.516,2.816,2.928l-2.023-.016Q870.875,226.882,871.813,223.986Zm7.315,10.47,5.488,0.053,0.715,3.152-1.734-.018a10.475,10.475,0,0,0-4.94-1.737Zm30.4,6.335-0.471,1.448,7.219,0.069,0.47-1.448Z"/>
  <path id="Shape_1_copy_12" data-name="Shape 1 copy 12" class="cls-2" d="M62.837,29.6Q71.6,45.406,70.344,49.26q8.845,20.892,1.975,74.035l-1.575,21.754-1.157-.012q-2.129,23.448-6.639,49.764l1.444,0.015q55.093-71.311,66.485-81.365l0.39-1.2,1.446,0.014-0.784,2.411,1.444,0.014,0.393-1.208-0.66-2.424q14.661-13.882,33.576-35.478A59.112,59.112,0,0,1,168.9,65.195a1.355,1.355,0,0,0,1.466-.952l-1.154-.01a1.589,1.589,0,0,1-1.757.95l0.706-2.169A1.7,1.7,0,0,1,170,61.82l-3.167-11.641,0.315-.964q2.019,0.019,6.666-3.565l6.423,14.09-0.314.966,1.443,0.011q10.565-14.649,22.09-21.559l-0.393,1.207q-3.911,3.106-15.894,19.44-2.315-.021-5.478,7.931,15.637-9.768,30.145-28.5l2.6,0.024-1.859,2.159-0.393,1.205q6.791-5.74,8.529-5.722l-0.394,1.2q-4.878,6.973-6.32,6.955a5.688,5.688,0,0,1,.347,3.388q-7.953,8.4-28.089,35.533l-0.393,1.207,1.155,0.01L218,49.7l1.444,0.013-0.708,2.169L185.21,90.749q2.889,0.029-1.564,51.988-2.347,15.219-1.924,18.363l-1.445-.014q-2.928,34.807-7.4,48.552l2.889,0.027A903.653,903.653,0,0,1,240.017,130.7l0.393-1.207,1.444,0.014-0.707,2.17,1.444,0.015,0.315-.964-0.659-2.427,67.44-70.954,2.916-.939-0.315.964L287.841,86.165Q275.22,99.1,274.6,101.034l-0.315.966,1.445,0.013q1.728-5.3,29.854-28.5,14.923-15.58,15.4-17.028l2.6,0.024-1.866,2.162-0.392,1.205q6.793-5.743,8.529-5.725l-0.393,1.208q-4.792,6.723-6.24,6.712a6.845,6.845,0,0,1,.266,3.63L281.84,117.069l1.444,0.012L327.215,66.7l1.445,0.013-0.784,2.415q-34.969,38.85-46.108,56.158,3.177,0.029,11.1-12.713l1.445,0.015-0.393,1.2A921.038,921.038,0,0,0,240.3,197.46q-7.923,7.425-39.887,50.413l-31.081,36.712q-10.682,7.882-13.857,7.85l-0.391,1.207-0.836,7a10.6,10.6,0,0,0-2.935,4.57l-1.157-.011,1.887-5.788L150.6,299.4l-0.707,2.171-1.444-.014q-8.092-.078-5.5-8.036a32.063,32.063,0,0,0-7.5-11.683q0.7-2.169-.45-2.181l1.938-2.4q0.942-2.893-2.074-23-6.707-8.771,1.283-71.586l0.832-7,1.445,0.015q-0.977-1.461,1.145-7.972l-1.442-.012q-9.231,15.875-65.374,85.967-16.552,19.677-26.133,21.52l-1.445-.011L44.4,277.589,43.565,284.6a10.612,10.612,0,0,0-2.935,4.568l-1.445-.014,1.885-5.785-1.444-.013-0.707,2.17-1.446-.014q-8.091-.076-5.5-8.035-1.743-8-5-10.451c0.224-3.056-.147-4.594-1.108-4.6l1.941-2.4,1.1-3.377-2.991,1.18q1.41-4.341-5.9-37.063,3.383-44.234,6-61.141l1.444,0.013a5.627,5.627,0,0,1-.349-3.386,83.408,83.408,0,0,0,3.425-14.965q4.746-10.113,5.527-12.525,1.021-3.132,6.039-26.549,4.042,0.036-1.22,16.2l1.445,0.012L43.108,116a77.959,77.959,0,0,1,2.638-12.551l3.722-6.98,4.294-34.548,0.393-1.205L55.6,60.729l-1.516,8.21,1.446,0.013,1.179-3.615q-0.671-10.405.431-13.785l0.393-1.2,2.151-2.156-1.444-.013a1.588,1.588,0,0,1-1.761.952l0.707-2.174a1.7,1.7,0,0,1,1.838-1.19L55.855,34.125l0.315-.967Q58.192,33.181,62.837,29.6ZM38.87,290.116l2.89,0.026-0.415,4.835-2.914.938c0.209-.638-0.17-0.967-1.13-0.978l2.231-2.4Zm110.976,16.051,2.6,0.024-0.128,4.84-3.2.937c0.21-.64-0.073-0.969-0.842-0.975l1.943-2.4ZM357.049-.012L358.5,0l-2.877,7.953,1.444,0.014q1.537-3.85,6.166-3.811-1.338,4.1,1.845,4.129L366.518,8.3l-0.583-2.665a4.1,4.1,0,0,1,4.252-2.379L372.6,4.731l1.153-2.649L375.2,2.1q3.864,4.149,8.121,4.428l-1.155,2.65-5.805-1.748-6.278-.3-0.47,1.446a57.175,57.175,0,0,1,12.163,1.81l-1.155,2.65-7.249-1.762-3.179-.03a8.263,8.263,0,0,1,.111,4.112l12.634,0.362-0.582-2.664a18.676,18.676,0,0,1,5.3-1.161l0.393-1.2-3.1-.273,0.863-2.65q24.707-2.907,26.732-2.889,18.88,4.294,38.31,38.1,8.421,20.4,1.437,39.2l-2.881,7.954L450,92.789l-1.654-.258,0.5,2.907-2.015,5.3q-13.671,36.641-80.865,67.683,6.5,16.5,19.088,85.564,0.783,0.248,3.106,8.255l-2.308,2.635L387.3,264.9a1.926,1.926,0,0,1,2.128-1.191l-0.47,1.445-2.52,2.4,21.213,37.209-1.155,2.651q-0.867-.007-16.15-20.714l-0.393,1.205a153.072,153.072,0,0,0,14.529,24.81l-0.362,5.56a87.191,87.191,0,0,1-10.647-10.021L393,309.7q2.014,0.019,5.311,6.823l-0.472,1.446q-6.1-1.744-23.4-22.477l-0.683,1.2q2.315,0.021,5.527,7.067l-1.656-.255-2.707-1.48-0.471,1.448q2.307,0.021,14.126,18.032l-0.473,1.45q-1.655-.258-7.36-5.877l-0.762,1.443q2.312,0.024,5.6,6.826L384.428,328q-11.264-17.034-46.517-50.271-17.421-30.153-18.037-84.348l0.393-1.2-1.444-.012q-12.645,33.5-45.888,83.975l-1.445-.014a8.256,8.256,0,0,0-.113-4.109l-7.426,2.346q0.232-6.045-3.579-6.806l-1.153,2.647q-3.183-.029-1.161-5.33l-1.369-.253-7.9,3.793-1.732-.018q1.146-2.646-1.946-2.92l0.863-2.653,2.7,1.478q5.771-32.839,23.783-81.045Q338.5,40.931,344.263,25.023l6.913-18.561Q354.353,6.492,357.049-.012ZM373.322,32.8l-0.471,1.448q-5.38,31.639-11.974,49.23L340.142,139.15q29.167-5.043,48.113-22.277,13.142-13.664,14.163-16.8l1.734,0.016-0.471,1.447q-1.155,2.651-9.729,12.968l3.1,0.273q8.026-8.634,9.048-11.766L404.653,103l2.6-2.637,2.877-7.953q8.928-23.863-8.875-44.833Q387.534,36.323,373.322,32.8ZM384.8,122.161q-18.27,13.375-44.073,19.654l-0.472,1.446,3.176,0.033,12.838-4.714q-0.39,1.2,1.052,1.217l1.155-2.649,1.365,0.257-0.865,2.65,1.445,0.012q8.293,0.325,11-3.521l-0.5-2.907q12.257-7.38,15.329-11.465Zm2.051-87.3-0.393,1.2a47.008,47.008,0,0,1,19.63,11.8l1.447,0.015L406.447,42.3a1.69,1.69,0,0,0,2.127-1.19q-3.471-2.689-10.034-3l-0.394,1.205q-6.464-4.168-9.564-4.443Zm22.528,17.146-0.395,1.2,4.656,4.4,0.469-1.446Zm161.311,5.65,16.467,0.157,11.693,3.254a2.192,2.192,0,0,1,2.285-1.671q-0.708,2.171,33.945,14.111l0.712,3.15-3.754-.034-6.2-3.2-0.472,1.447q14.633,9.333,18.975,9.373l-1-3.155,2.021,0.019q22.431,9.409,29.027,50.588l1.734,0.018-2.756,3.118,1.734,0.016a2.036,2.036,0,0,1-2.205,1.429q-3.863,23.43-2.909,25.853-21.808,43.824-47.493,62.2a181.5,181.5,0,0,1-50.76,26.847q-19.407,4.412-23.45,4.374l-1.735-.016,0.472-1.448,3.467,0.031,1.021-3.134a2.042,2.042,0,0,0-2.2,1.433q-1.735-.02-1.263-1.466a230.9,230.9,0,0,1-37.421,2.789l-3.757-.037q-24.24-1.192-54.594-17.454Q419,204,428.426,175.064l1.734,0.016-0.791-2.912,5.495-16.877,3.206,1.724,4-12.3L441,141.807q3.173,0.029,10.963-10.54l-1-3.154,1.493-4.584q6.6-20.255,77.122-57.073Q560.289,57.56,570.687,57.657ZM556.078,97.186l0.55-1.687q-55.316,18.583-61.989,39.076-5.718,6-7.452,5.978l0.471-1.446,2.678-2.879-1.734-.018q-4.854,6-7.451,5.977-4.158,18.1-2.913,25.854a15.2,15.2,0,0,0-3.695,6.01q1.058,9.21,4.238,9.233a2.039,2.039,0,0,1,2.2-1.428,8.187,8.187,0,0,0,.32,4.355,2.189,2.189,0,0,0-2.282,1.672c1.154,0.009,1.574.5,1.26,1.462l-3.464-.034q-0.473,1.45,9.256,10.734a2.041,2.041,0,0,0-2.206,1.431q3.309,0.519,2.447,3.167l-1.732-.015-7.283-6.12-1.733-.017-0.471,1.448,17.955,12.506,1.729,0.018,0.551-1.688q-7.223-.067-9.016-6.132l1.734,0.018q14.452,10.781,34.97,10.973l7.222,0.07q1.731,0.013,1.259,1.464l4.229-1.414,12.712,0.121-5.246,4.549,2.019,0.02a2.043,2.043,0,0,1,2.206-1.433l-0.472,1.449q29.619-5.526,43.08-14.829c-0.314.961,0.2,1.453,1.55,1.466q28.9-21.979,34.468-39.1l0.549-1.69-1.735-.018q-6.042,18.573-27.378,33.36l0.471-1.443q17.578-14.83,23.154-31.951l6.908-21.217,3.284,1.482q-6.081-30.292-17.323-36.69-8.442-6.123-23.7-10.87l0.468-1.447q28.6,0.273,42.747,36.934,4.554-13.985-19.289-30.664a110.7,110.7,0,0,0-20.233-10.834Q570.1,94.173,556.078,97.186ZM514.49,107.431q-4.092,4.56-21.172,19.633l3.756,0.034q1.334-4.092,20.883-19.631Zm0.834,109.582-0.55,1.686,3,1.481,3.759,0.037L522,218.769A12.19,12.19,0,0,1,515.324,217.013Zm8.407,1.773-0.472,1.449,7.222,0.068,0.471-1.448Zm7.478-123.528q-1.024,3.134-6.51,3.079l-0.473,1.449,3.464,0.031q0.943-2.891,6.434-2.84l0.55-1.688ZM554,249.55l-0.941,2.894,1.732,0.017q2.6,0.025,6.981-4.531l-1.734-.018A19.749,19.749,0,0,1,554,249.55Zm43.489-49.9-0.472,1.448q-0.7,2.171-6.982,4.531l0.472-1.447C590.974,202.733,593.3,201.229,597.484,199.651Zm16.348-123.2L613.363,77.9q13,0.122,35.695,24.769l-0.473,1.449,2.022,0.02L651.629,101q-21.408-21.49-24-21.516l-0.473,1.448-11.3-4.463ZM627.3,158.818l-1.964,6.029,1.736,0.016,1.962-6.029ZM776.162,4.224q-1.255,3.855,1.514,14.044-1.181,3.615-2.649,26.821l-6.986,21.462q7.932,8.544,9.755,77.736-4.322,13.266-3.837,44.711l-1.255,3.86-1.735-.016,0.674-6.527L770.2,186.3l-0.469,1.45,1.864,22.754,1.444,0.013,0.393-1.208q0.63-1.927,3.5-15.2,3.139-9.642,11.134-25.291l-1.445-.014a14.108,14.108,0,0,0,2.7-3.846q1.412-4.338.675-6.523Q830.84,51.671,854.1,40.762q2.595-7.956,15.329-8.8L873.762,32c1.155,0.012,1.6.422,1.341,1.225q6.929-2.6,9.817-2.571,6.386,4.417,5.289,7.793a62.855,62.855,0,0,1-2.449,16.424Q876.182,85.96,875.085,89.338l-1.443-.011,0.661,2.426L873.437,94.4l-2.23,2.4,1.445,0.011-2.308,2.638-2.041,6.27q-0.63,1.934-13.147,30.592l-0.393,1.2a1.7,1.7,0,0,1-1.838,1.193,6.984,6.984,0,0,1,.189,3.873l-42.82,79.894q-8.7,17.823-10.741,24.085l-1.733-.016,1.648-5.065q5.424-11.311,6.286-13.968l1.258-3.858-1.734-.018q-0.237.723-9.092,19.023l-1.648,5.065a1.916,1.916,0,0,1-2.127,1.188c-0.315.963,0.107,1.456,1.262,1.465l-4.638,8.9L780,287.017c-0.314.963,0.109,1.456,1.263,1.465q-1.809.225-5.817,12.522l-1.444-.013,21.907-67.276-1.444-.016q-9.147,23.625-12.6,34.229l-0.862,2.654-2.6,2.635,1.732,0.017-17.606,35.384q-3.185-.027.51-11.36l-1.444-.013-2.827,8.679-1.735-.015q2.436-7.473,12.937-58.412l-1.444-.015q-11.465,35.209-19.269,54.723l-1.446-.013a168.558,168.558,0,0,1,4.472-19.068l4.554-13.983,2.717-12.8,1.445,0.013L760.43,253.7l4.083-12.541,0.673-6.523-1.444-.013-0.862,2.65-1.735-.017q1.494-4.575-13.513-33.264l-0.391,1.206q6.512,21.83,5.729,24.241l-1.444-.015q1.758,4.373,1.056,6.541-3.609-3.174-13.973-46.091-7.24-10.705-7.338-34.415l-1.444-.014q-16.749,32.739-78.788,143.167l-1.255,3.858-2.888-.026q6.887-12.267,7.442-13.96l0.392-1.2-1.446-.014-0.783,2.41-2.888-.027q-2.975-2.444-5.279-2.466a1.846,1.846,0,0,1,1.913-1.437l3.5-15.2,3.3-10.128,0.31-6.287-3.282,1.179,0.393-1.205q3.3-10.129,9.432-43.207,19.47-59.8,60.036-114.081,5.886-15.42,9.646-15.387l-0.472,1.446-8.124,15.162-0.786,2.411,1.735,0.015q1.964-6.022,23.983-41.618a135.217,135.217,0,0,0,8.8-21.683l1.444,0.015L752.472,48.5l1.444,0.014q2.433-7.471,3.876-7.461l-0.579-2.664A1.7,1.7,0,0,1,759.05,37.2l0.2-5.078q4.425-9.147,6.947-11.547L767.5,6.8l2.785,1.234,1.444,0.014Q772.985,4.2,776.162,4.224ZM765.85,195.208l-0.393,1.208q3.065,18.17,1.5,22.994l3.179,0.029,0.394-1.207-3.233-23.007ZM859.833,162l-1.963,6.03,1.734,0.015,0.944-2.9q2.306,0.022,5.107,11.9l-0.551,1.69-1.731-.018q-3.759-.031-2.262-4.618l-1.735-.016-0.942,2.894c1.156,0.01,1.549.583,1.183,1.706l-1.735-.017q-2.313-.023-7.7-9.264,4.622,0.047,7.92-7.425Zm-2.894,19.567L860.7,181.6a8.282,8.282,0,0,0,.242,4.6l-1.734-.015q-3.761-.038-2.735-3.173Zm1.8,6.063q3.306,0.52,2.523,2.926l-0.472,1.449q-3.463-.035-2.523-2.927Zm5.9-7.443,1.733,0.017,0.059,6.049q-3.75-.037-2.265-4.618ZM998.231,62.7l19.939,0.191q42.75,0.406,67.64,35.233,8.805,16.54,6.85,22.56l-0.47,1.45-1.73-.018q1.965-6.028-18.16-27.025l0.55-1.683-4.01,1.652-2.02-.02q1.485-4.576-4.43-7.779l-0.55,1.687q1.455,0.013,12.58,16.566a2.047,2.047,0,0,0-2.21,1.432l1.74,0.016a2.035,2.035,0,0,1,2.2-1.431l1.98,4.616a2.048,2.048,0,0,1-2.21,1.431l4.09,15.036-3.47-.035q1.425-4.34-10.05-13.639,2.19,4.857,1.33,7.51l-8.55-7.579-0.47,1.447q2.61,0.024,6.52,7.558l-0.55,1.689-3.46-.034q1.17-3.613-4.72-7.785l-0.54,1.69,6.05,9.006-0.47,1.447-3.47-.036q1.965-6.02-3.53-6.079l-1.02,3.136c-1.92-.017-3.68-2.048-5.26-6.1l1.74,0.018,3.28,1.482,0.47-1.448-4.47-3.186-1.02,3.134-1.73-.017c1.31-4.016-1.03-6.054-6.99-6.11l0.47-1.449a2.032,2.032,0,0,0,2.2-1.432l-3.94,1.415-1.73-.014,2.75-3.122q-10.515-9.531-40.743-13.691L994.7,95.8q-1.732-.017-1.26-1.462l-4.228,1.41-10.69-.1-0.941,2.894,4.225-1.411,19.648,0.187q22.815,0.217,32.45,10.711l-1.74-.017q-16.455-9.1-38.405-9.315-5.49-.051-24.42,2.912l3.044-3.116-3.759-.037L968.15,99.9l0.713,3.152-7.222-.068,5.249-4.548q-58.92,15.4-70.853,52.054l-1.412,4.339q-11.936,36.657,33,58.852,4.617,0.043,20.355,3.339l-0.47,1.446-7.221-.069q-21.38-.2-41.887-19.992,1.8-5.544-9.107-16.533l1.508,6.06-3.468-.034q1.895,4.858,1.034,7.51l-6.994-6.114-1.734-.016q6.426,16.749,16.567,21.2l0.472-1.448q-1.732-.015-1.182-1.7a19,19,0,0,0,5.672-1.4q26.353,16.944,52.07,17.186,1.179-3.615,26.385-8.938a10.255,10.255,0,0,0,4.65,1.735q19.995-13.352,22.6-13.327l-0.95,2.894q1.44,0.012,14.62-11.956l-1.02,3.132q-1.815,5.555-15.56,14.851l3.47,0.032-4.96,4.549,1.73,0.015q24.51-14.762,28.44-26.818l-1.73-.017,2.75-3.118,0.47-1.446a77,77,0,0,0-14.92,1.308l-35.667-6.145-0.471,1.446-3-1.478-3.756-.036a2.042,2.042,0,0,0-2.206,1.428q-2.418-1.47-8.483-1.529l0.551-1.69,8.954,0.085,0.471-1.448-10.688-.1a63.774,63.774,0,0,0-23.161,4.375,12.172,12.172,0,0,0-5.016-1.5l0.55-1.689q26.826-4.1,33.768-4.032l0.551-1.69-7.223-.069-12.97,1.572,0.55-1.69q-13.266,1.57-13.732,3.015a12.619,12.619,0,0,0-6.466-1.513l0.55-1.688,2.675-2.878c-1.154-.01-1.574-0.5-1.262-1.461q4.62,0.045,30.322-10.353l3.465,0.03L968,155.535l-5.2-.05q-15.624,3.478-15.933,4.443l-3.288-1.483-1.734-.016-3.935,1.412,1.019-3.134,69.768-15.782q37.02-1.578,48.29-4.135,37.95,4.478,30.49,27.38,2.025,0.018-.88,8.94l-0.55,1.689q-4.695,2.859-27.64,29.729-54.825,49.064-91.5,48.716l-6.754-1.518q-3.466-.033-13.65,2.774-6.286-2.962-9.751-3l-0.468,1.449q-31.341-3.438-29.452-9.231l2.021,0.019,6.463,1.515,2.023,0.017,0.471-1.448q-5.491-.052-4-4.632l3.467,0.034,6.75,1.514,2.024,0.017,0.469-1.445-5.488-.052,0.473-1.446,2.751-3.117q-23.566-5.062-21.287-12.054l-3.94,1.414q-17.481-11.292-24.592-34.824-10.834-5.908-2.509-31.469,9.971-30.62,41.462-55.237l-1.735-.017q-24.277,16.7-31.876,31.14l-1.729-.018,0.94-2.893a14.569,14.569,0,0,1,3.226-4.567l0.7-7.49q5.966-18.324,58.911-42.977Q977.716,62.5,998.231,62.7ZM874.6,216.325q18.531,15.173,22,15.2l-0.471,1.448-5.489-.051q-17.06-13.463-16.507-15.155Zm5.8-67.674-4.4,13.5,1.734,0.017a15.208,15.208,0,0,1,3.7-6.009q-0.948-2.427.7-7.5Zm0.014,82.722,5.492,0.054q3.308,0.52,2.523,2.926l-0.473,1.449-3.463-.032Q881.9,235.743,880.423,231.373ZM897.61,123.417L885.519,138.3l1.734,0.018,12.089-14.882Zm-5.8,100.569L893.547,224q3.6,0.516,2.816,2.928l-2.023-.016Q890.873,226.882,891.813,223.986Zm7.315,10.47,5.488,0.053,0.715,3.152-1.734-.018a10.474,10.474,0,0,0-4.941-1.737Zm30.4,6.335-0.472,1.448,7.22,0.069,0.47-1.448Z"/>
  <path id="Shape_1_copy_11" data-name="Shape 1 copy 11" class="cls-3" d="M52.837,29.6Q61.6,45.406,60.344,49.26q8.845,20.892,1.975,74.035l-1.575,21.754-1.157-.012q-2.129,23.448-6.639,49.764l1.444,0.015q55.093-71.311,66.485-81.365l0.39-1.2,1.445,0.014-0.784,2.411,1.444,0.014,0.393-1.208-0.66-2.424q14.661-13.882,33.576-35.478a59.105,59.105,0,0,1,2.224-10.381,1.353,1.353,0,0,0,1.465-.952l-1.154-.01a1.588,1.588,0,0,1-1.757.95l0.706-2.169A1.7,1.7,0,0,1,160,61.82l-3.167-11.641,0.315-.964q2.019,0.019,6.667-3.565l6.422,14.09-0.314.966,1.443,0.011q10.565-14.649,22.09-21.559l-0.393,1.207q-3.909,3.106-15.893,19.44-2.316-.021-5.479,7.931,15.639-9.768,30.145-28.5l2.6,0.024-1.859,2.159-0.393,1.205q6.791-5.74,8.529-5.722l-0.394,1.2q-4.878,6.973-6.319,6.955a5.694,5.694,0,0,1,.346,3.388q-7.953,8.4-28.089,35.533l-0.393,1.207,1.155,0.01L208,49.7l1.444,0.013-0.707,2.169L175.21,90.749q2.891,0.029-1.564,51.988-2.347,15.219-1.924,18.363l-1.444-.014q-2.929,34.807-7.4,48.552l2.888,0.027A903.653,903.653,0,0,1,230.017,130.7l0.393-1.207,1.444,0.014-0.707,2.17,1.445,0.015,0.314-.964-0.659-2.427,67.441-70.954,2.916-.939-0.316.964L277.841,86.165Q265.222,99.1,264.6,101.034l-0.315.966,1.445,0.013q1.728-5.3,29.855-28.5,14.923-15.58,15.4-17.028l2.6,0.024-1.865,2.162-0.393,1.205q6.795-5.743,8.529-5.725l-0.393,1.208q-4.792,6.723-6.24,6.712a6.835,6.835,0,0,1,.266,3.63L271.84,117.069l1.444,0.012L317.215,66.7l1.445,0.013-0.784,2.415q-34.969,38.85-46.108,56.158,3.179,0.029,11.1-12.713l1.444,0.015-0.393,1.2a920.82,920.82,0,0,0-53.611,83.665q-7.923,7.425-39.888,50.413l-31.081,36.712q-10.68,7.882-13.857,7.85l-0.39,1.207-0.836,7a10.589,10.589,0,0,0-2.935,4.57l-1.158-.011,1.887-5.788L140.6,299.4l-0.708,2.171-1.444-.014q-8.092-.078-5.5-8.036a32.049,32.049,0,0,0-7.5-11.683q0.7-2.169-.45-2.181l1.938-2.4q0.942-2.893-2.074-23-6.707-8.771,1.283-71.586l0.833-7,1.444,0.015q-0.977-1.461,1.145-7.972l-1.442-.012q-9.23,15.875-65.374,85.967-16.552,19.677-26.133,21.52l-1.445-.011L34.4,277.589,33.565,284.6a10.612,10.612,0,0,0-2.935,4.568l-1.445-.014,1.885-5.785-1.444-.013-0.707,2.17-1.445-.014q-8.091-.076-5.5-8.035-1.743-8-5-10.451c0.224-3.056-.147-4.594-1.108-4.6l1.941-2.4,1.1-3.377-2.991,1.18q1.41-4.341-5.9-37.063,3.383-44.234,6-61.141l1.444,0.013a5.628,5.628,0,0,1-.349-3.386,83.408,83.408,0,0,0,3.425-14.965q4.746-10.113,5.527-12.525,1.021-3.132,6.039-26.549,4.041,0.036-1.22,16.2l1.446,0.012L33.108,116a77.957,77.957,0,0,1,2.639-12.551l3.722-6.98,4.294-34.548,0.393-1.205L45.6,60.729l-1.516,8.21,1.445,0.013,1.179-3.615q-0.671-10.405.431-13.785l0.393-1.2,2.151-2.156-1.444-.013a1.588,1.588,0,0,1-1.761.952l0.707-2.174a1.7,1.7,0,0,1,1.838-1.19L45.856,34.125l0.314-.967Q48.192,33.181,52.837,29.6ZM28.87,290.116l2.89,0.026-0.415,4.835-2.914.938c0.209-.638-0.17-0.967-1.13-0.978l2.231-2.4Zm110.976,16.051,2.6,0.024-0.128,4.84-3.2.937c0.21-.64-0.072-0.969-0.842-0.975l1.944-2.4ZM347.05-.012L348.5,0l-2.877,7.953,1.444,0.014q1.537-3.85,6.166-3.811-1.338,4.1,1.846,4.129L356.518,8.3l-0.583-2.665a4.1,4.1,0,0,1,4.252-2.379l2.418,1.475,1.152-2.649L365.2,2.1q3.864,4.149,8.12,4.428l-1.155,2.65-5.8-1.748-6.279-.3-0.47,1.446a57.175,57.175,0,0,1,12.163,1.81l-1.155,2.65-7.249-1.762-3.179-.03a8.263,8.263,0,0,1,.111,4.112l12.634,0.362-0.582-2.664a18.683,18.683,0,0,1,5.3-1.161l0.393-1.2-3.1-.273,0.862-2.65q24.708-2.907,26.732-2.889,18.88,4.294,38.31,38.1,8.421,20.4,1.437,39.2l-2.881,7.954L440,92.789l-1.653-.258,0.5,2.907-2.015,5.3q-13.671,36.641-80.865,67.683,6.5,16.5,19.088,85.564,0.785,0.248,3.107,8.255l-2.309,2.635L377.3,264.9a1.926,1.926,0,0,1,2.128-1.191l-0.47,1.445-2.52,2.4,21.213,37.209-1.155,2.651q-0.865-.007-16.15-20.714l-0.392,1.205a153,153,0,0,0,14.528,24.81l-0.362,5.56a87.113,87.113,0,0,1-10.646-10.021L383,309.7q2.014,0.019,5.311,6.823l-0.471,1.446q-6.1-1.744-23.4-22.477l-0.683,1.2q2.315,0.021,5.527,7.067l-1.655-.255-2.708-1.48-0.471,1.448q2.307,0.021,14.126,18.032l-0.472,1.45q-1.655-.258-7.361-5.877l-0.761,1.443q2.31,0.024,5.6,6.826L374.428,328q-11.264-17.034-46.517-50.271-17.421-30.153-18.036-84.348l0.393-1.2-1.445-.012q-12.645,33.5-45.888,83.975l-1.445-.014a8.256,8.256,0,0,0-.113-4.109l-7.426,2.346q0.232-6.045-3.579-6.806l-1.153,2.647q-3.183-.029-1.161-5.33l-1.368-.253-7.9,3.793-1.732-.018q1.146-2.646-1.945-2.92l0.862-2.653,2.705,1.478q5.769-32.839,23.782-81.045Q328.5,40.931,334.263,25.023l6.914-18.561Q344.352,6.492,347.05-.012ZM363.323,32.8l-0.472,1.448q-5.38,31.639-11.973,49.23L330.142,139.15q29.167-5.043,48.114-22.277,13.14-13.664,14.162-16.8l1.734,0.016-0.471,1.447q-1.154,2.651-9.729,12.968l3.1,0.273q8.025-8.634,9.047-11.766L394.654,103l2.6-2.637,2.877-7.953q8.928-23.863-8.875-44.833Q377.535,36.323,363.323,32.8ZM374.8,122.161q-18.269,13.375-44.073,19.654l-0.472,1.446,3.176,0.033,12.838-4.714c-0.26.8,0.089,1.207,1.053,1.217l1.154-2.649,1.365,0.257-0.864,2.65,1.445,0.012q8.293,0.325,11-3.521l-0.5-2.907q12.257-7.38,15.329-11.465Zm2.051-87.3-0.392,1.2a47.011,47.011,0,0,1,19.629,11.8l1.448,0.015L396.447,42.3a1.69,1.69,0,0,0,2.127-1.19q-3.471-2.689-10.034-3l-0.394,1.205q-6.464-4.168-9.563-4.443Zm22.528,17.146-0.394,1.2,4.655,4.4,0.469-1.446Zm161.312,5.65,16.466,0.157,11.694,3.254a2.19,2.19,0,0,1,2.284-1.671q-0.707,2.171,33.945,14.111l0.713,3.15-3.754-.034-6.2-3.2-0.472,1.447q14.633,9.333,18.975,9.373l-1-3.155,2.021,0.019q22.431,9.409,29.027,50.588l1.734,0.018-2.756,3.118,1.735,0.016a2.037,2.037,0,0,1-2.206,1.429q-3.863,23.43-2.909,25.853-21.807,43.824-47.493,62.2a181.484,181.484,0,0,1-50.76,26.847q-19.407,4.412-23.45,4.374l-1.734-.016,0.471-1.448,3.467,0.031,1.021-3.134a2.042,2.042,0,0,0-2.2,1.433q-1.735-.02-1.263-1.466a230.9,230.9,0,0,1-37.42,2.789l-3.757-.037q-24.242-1.192-54.595-17.454Q409,204,418.426,175.064l1.734,0.016-0.791-2.912,5.495-16.877,3.206,1.724,4-12.3L431,141.807q3.173,0.029,10.963-10.54l-1-3.154,1.492-4.584q6.6-20.255,77.122-57.073Q550.289,57.56,560.688,57.657ZM546.079,97.186l0.55-1.687q-55.317,18.583-61.989,39.076-5.718,6-7.453,5.978l0.471-1.446,2.679-2.879-1.734-.018q-4.856,6-7.452,5.977-4.158,18.1-2.913,25.854a15.208,15.208,0,0,0-3.695,6.01q1.058,9.21,4.238,9.233a2.039,2.039,0,0,1,2.2-1.428,8.2,8.2,0,0,0,.32,4.355,2.189,2.189,0,0,0-2.282,1.672c1.154,0.009,1.574.5,1.26,1.462l-3.464-.034q-0.473,1.45,9.256,10.734a2.039,2.039,0,0,0-2.205,1.431q3.308,0.519,2.446,3.167l-1.731-.015-7.284-6.12-1.732-.017-0.472,1.448,17.956,12.506,1.728,0.018,0.551-1.688q-7.223-.067-9.016-6.132l1.734,0.018q14.452,10.781,34.97,10.973l7.223,0.07q1.73,0.013,1.259,1.464l4.228-1.414,12.713,0.121-5.247,4.549,2.019,0.02a2.043,2.043,0,0,1,2.206-1.433l-0.472,1.449q29.619-5.526,43.081-14.829c-0.315.961,0.2,1.453,1.55,1.466q28.9-21.979,34.468-39.1l0.549-1.69-1.736-.018q-6.042,18.573-27.378,33.36l0.472-1.443q17.577-14.83,23.154-31.951l6.907-21.217,3.284,1.482q-6.081-30.292-17.323-36.69-8.442-6.123-23.7-10.87l0.468-1.447q28.6,0.273,42.747,36.934,4.554-13.985-19.289-30.664a110.72,110.72,0,0,0-20.232-10.834Q560.1,94.173,546.079,97.186Zm-41.588,10.245q-4.093,4.56-21.172,19.633l3.755,0.034q1.335-4.092,20.883-19.631Zm0.833,109.582-0.55,1.686,3,1.481,3.759,0.037L512,218.769A12.193,12.193,0,0,1,505.324,217.013Zm8.407,1.773-0.472,1.449,7.222,0.068,0.471-1.448Zm7.478-123.528q-1.024,3.134-6.51,3.079l-0.472,1.449,3.463,0.031q0.943-2.891,6.434-2.84l0.551-1.688ZM544,249.55l-0.941,2.894,1.733,0.017q2.6,0.025,6.981-4.531l-1.735-.018A19.749,19.749,0,0,1,544,249.55Zm43.489-49.9-0.471,1.448q-0.705,2.171-6.982,4.531l0.471-1.447C580.974,202.733,583.3,201.229,587.484,199.651Zm16.348-123.2L603.363,77.9q13,0.122,35.695,24.769l-0.473,1.449,2.022,0.02L641.629,101q-21.408-21.49-24-21.516l-0.472,1.448-11.3-4.463ZM617.3,158.818l-1.963,6.029,1.735,0.016,1.962-6.029ZM766.162,4.224q-1.255,3.855,1.514,14.044-1.179,3.615-2.649,26.821l-6.986,21.462q7.933,8.544,9.755,77.736-4.322,13.266-3.837,44.711l-1.255,3.86-1.734-.016,0.673-6.527L760.2,186.3l-0.469,1.45,1.864,22.754,1.445,0.013,0.393-1.208q0.63-1.927,3.5-15.2,3.141-9.642,11.134-25.291l-1.444-.014a14.121,14.121,0,0,0,2.7-3.846q1.412-4.338.675-6.523Q820.84,51.671,844.1,40.762q2.593-7.956,15.329-8.8L863.762,32c1.155,0.012,1.6.422,1.341,1.225q6.929-2.6,9.817-2.571,6.386,4.417,5.289,7.793a62.813,62.813,0,0,1-2.449,16.424Q866.183,85.96,865.086,89.338l-1.444-.011,0.661,2.426L863.438,94.4l-2.23,2.4,1.444,0.011-2.307,2.638-2.042,6.27q-0.628,1.934-13.147,30.592l-0.393,1.2a1.7,1.7,0,0,1-1.838,1.193,6.975,6.975,0,0,1,.189,3.873L800.3,222.482q-8.7,17.823-10.741,24.085l-1.734-.016,1.648-5.065q5.426-11.311,6.286-13.968l1.258-3.858-1.734-.018q-0.236.723-9.092,19.023l-1.648,5.065a1.916,1.916,0,0,1-2.127,1.188c-0.315.963,0.107,1.456,1.263,1.465l-4.639,8.9L770,287.017c-0.314.963,0.109,1.456,1.263,1.465q-1.808.225-5.817,12.522l-1.444-.013,21.907-67.276-1.444-.016q-9.146,23.625-12.594,34.229l-0.863,2.654-2.6,2.635,1.732,0.017-17.606,35.384q-3.185-.027.511-11.36l-1.445-.013-2.827,8.679-1.735-.015q2.436-7.473,12.937-58.412l-1.444-.015q-11.465,35.209-19.269,54.723l-1.445-.013a168.6,168.6,0,0,1,4.471-19.068l4.555-13.983,2.716-12.8,1.445,0.013-0.58-2.663,4.082-12.541,0.674-6.523-1.445-.013-0.862,2.65-1.734-.017q1.493-4.575-13.513-33.264l-0.391,1.206q6.51,21.83,5.728,24.241l-1.444-.015q1.758,4.373,1.056,6.541-3.607-3.174-13.972-46.091-7.242-10.705-7.338-34.415l-1.445-.014Q703.078,188.18,641.04,298.608l-1.255,3.858-2.889-.026q6.887-12.267,7.443-13.96l0.391-1.2-1.446-.014-0.782,2.41-2.889-.027q-2.975-2.444-5.279-2.466a1.846,1.846,0,0,1,1.913-1.437l3.5-15.2,3.3-10.128,0.309-6.287-3.281,1.179,0.392-1.205q3.3-10.129,9.432-43.207,19.47-59.8,60.036-114.081,5.888-15.42,9.647-15.387l-0.473,1.446-8.123,15.162-0.787,2.411,1.735,0.015q1.965-6.022,23.983-41.618a135.124,135.124,0,0,0,8.8-21.683l1.445,0.015L742.472,48.5l1.444,0.014q2.433-7.471,3.876-7.461l-0.579-2.664A1.7,1.7,0,0,1,749.05,37.2l0.2-5.078q4.425-9.147,6.947-11.547L757.5,6.8l2.785,1.234,1.444,0.014Q762.985,4.2,766.162,4.224ZM755.85,195.208l-0.393,1.208q3.065,18.17,1.5,22.994l3.179,0.029,0.393-1.207-3.233-23.007ZM849.833,162l-1.963,6.03,1.735,0.015,0.943-2.9q2.307,0.022,5.107,11.9l-0.55,1.69-1.732-.018q-3.757-.031-2.262-4.618l-1.734-.016-0.943,2.894c1.156,0.01,1.549.583,1.183,1.706l-1.734-.017q-2.314-.023-7.7-9.264,4.622,0.047,7.92-7.425Zm-2.894,19.567L850.7,181.6a8.28,8.28,0,0,0,.241,4.6l-1.734-.015q-3.761-.038-2.735-3.173Zm1.8,6.063q3.306,0.52,2.523,2.926l-0.472,1.449q-3.463-.035-2.523-2.927Zm5.9-7.443,1.733,0.017,0.06,6.049q-3.751-.037-2.266-4.618ZM988.231,62.7l19.939,0.191q42.75,0.406,67.64,35.233,8.805,16.54,6.85,22.56l-0.47,1.45-1.73-.018q1.965-6.028-18.16-27.025l0.55-1.683-4.01,1.652-2.02-.02q1.485-4.576-4.43-7.779l-0.55,1.687q1.455,0.013,12.58,16.566a2.047,2.047,0,0,0-2.21,1.432l1.74,0.016a2.035,2.035,0,0,1,2.2-1.431l1.98,4.616a2.048,2.048,0,0,1-2.21,1.431l4.09,15.036-3.47-.035q1.425-4.34-10.05-13.639,2.19,4.857,1.33,7.51l-8.55-7.579-0.47,1.447q2.61,0.024,6.52,7.558l-0.55,1.689-3.46-.034q1.17-3.613-4.72-7.785l-0.54,1.69,6.05,9.006-0.47,1.447-3.47-.036q1.965-6.02-3.53-6.079l-1.02,3.136c-1.92-.017-3.68-2.048-5.26-6.1l1.74,0.018,3.28,1.482,0.47-1.448-4.47-3.186-1.02,3.134-1.73-.017c1.31-4.016-1.03-6.054-6.99-6.11l0.47-1.449a2.032,2.032,0,0,0,2.2-1.432l-3.94,1.415-1.73-.014,2.75-3.122q-10.515-9.531-40.743-13.691L984.7,95.8q-1.734-.017-1.26-1.462l-4.229,1.41-10.69-.1-0.941,2.894,4.225-1.411,19.648,0.187q22.815,0.217,32.45,10.711l-1.74-.017q-16.455-9.1-38.4-9.315-5.491-.051-24.421,2.912l3.044-3.116-3.759-.037L958.15,99.9l0.713,3.152-7.222-.068,5.249-4.548q-58.92,15.4-70.852,52.054l-1.412,4.339q-11.936,36.657,33,58.852,4.619,0.043,20.355,3.339l-0.469,1.446-7.222-.069q-21.38-.2-41.886-19.992,1.8-5.544-9.108-16.533l1.509,6.06-3.469-.034q1.895,4.858,1.034,7.51l-6.994-6.114-1.734-.016q6.426,16.749,16.567,21.2l0.472-1.448q-1.731-.015-1.182-1.7a18.988,18.988,0,0,0,5.672-1.4q26.355,16.944,52.07,17.186,1.179-3.615,26.386-8.938a10.247,10.247,0,0,0,4.65,1.735q19.995-13.352,22.6-13.327l-0.944,2.894q1.442,0.012,14.618-11.956l-1.02,3.132q-1.815,5.555-15.56,14.851l3.468,0.032-4.959,4.549,1.732,0.015q24.508-14.762,28.439-26.818l-1.73-.017,2.75-3.118,0.47-1.446a76.827,76.827,0,0,0-14.91,1.308l-35.677-6.145-0.471,1.446-3-1.478-3.755-.036a2.043,2.043,0,0,0-2.207,1.428q-2.417-1.47-8.483-1.529l0.551-1.69,8.954,0.085,0.472-1.448-10.689-.1a63.777,63.777,0,0,0-23.161,4.375,12.172,12.172,0,0,0-5.016-1.5l0.551-1.689q26.825-4.1,33.767-4.032l0.551-1.69-7.222-.069-12.971,1.572,0.551-1.69q-13.268,1.57-13.733,3.015a12.619,12.619,0,0,0-6.466-1.513l0.55-1.688,2.675-2.878c-1.154-.01-1.574-0.5-1.261-1.461q4.618,0.045,30.321-10.353l3.466,0.03L958,155.535l-5.2-.05q-15.624,3.478-15.933,4.443l-3.288-1.483-1.734-.016-3.935,1.412,1.019-3.134L998.7,140.925q37.025-1.578,48.293-4.135,37.95,4.478,30.49,27.38,2.025,0.018-.88,8.94l-0.55,1.689q-4.695,2.859-27.64,29.729-54.825,49.064-91.5,48.716l-6.753-1.518q-3.468-.033-13.651,2.774-6.286-2.962-9.75-3l-0.469,1.449q-31.341-3.438-29.452-9.231l2.021,0.019,6.464,1.515,2.022,0.017,0.471-1.448q-5.491-.052-4-4.632l3.467,0.034,6.75,1.514,2.024,0.017,0.47-1.445-5.488-.052,0.472-1.446,2.751-3.117q-23.565-5.062-21.287-12.054l-3.94,1.414q-17.481-11.292-24.592-34.824-10.834-5.908-2.509-31.469,9.971-30.62,41.462-55.237l-1.734-.017q-24.279,16.7-31.877,31.14l-1.729-.018L869,130.738a14.544,14.544,0,0,1,3.225-4.567l0.7-7.49q5.967-18.324,58.911-42.977Q967.718,62.5,988.231,62.7ZM864.6,216.325q18.532,15.173,22,15.2l-0.471,1.448-5.489-.051q-17.06-13.463-16.507-15.155Zm5.8-67.674-4.4,13.5,1.734,0.017a15.208,15.208,0,0,1,3.7-6.009q-0.947-2.427.7-7.5Zm0.015,82.722,5.491,0.054q3.308,0.52,2.523,2.926l-0.472,1.449-3.464-.032Q871.9,235.743,870.424,231.373ZM887.61,123.417L875.519,138.3l1.734,0.018,12.09-14.882Zm-5.8,100.569L883.548,224q3.6,0.516,2.815,2.928l-2.023-.016Q880.875,226.882,881.814,223.986Zm7.314,10.47,5.488,0.053,0.715,3.152-1.734-.018a10.475,10.475,0,0,0-4.94-1.737Zm30.4,6.335-0.471,1.448,7.219,0.069,0.47-1.448Z"/>
</svg>
